<mxfile host="app.diagrams.net" modified="2023-09-07T13:39:41.432Z" agent="Mozilla/5.0 (Windows NT 10.0; Win64; x64; rv:109.0) Gecko/20100101 Firefox/117.0" etag="M4zvtkQnYyReEGUhtvSm" version="21.7.2" type="device">
  <diagram name="Page-1" id="NICTR3Jn0P-N2mFj7YDP">
    <mxGraphModel dx="794" dy="474" grid="1" gridSize="10" guides="1" tooltips="1" connect="1" arrows="1" fold="1" page="1" pageScale="1" pageWidth="850" pageHeight="1100" math="0" shadow="0">
      <root>
        <mxCell id="0" />
        <mxCell id="1" parent="0" />
        <mxCell id="NVefRhnBoddBYxRPYqin-3" value="Developer" style="shape=umlActor;verticalLabelPosition=bottom;verticalAlign=top;html=1;outlineConnect=0;" vertex="1" parent="1">
          <mxGeometry x="140" y="290" width="30" height="60" as="geometry" />
        </mxCell>
        <mxCell id="NVefRhnBoddBYxRPYqin-4" value="" style="endArrow=classic;html=1;rounded=0;" edge="1" parent="1">
          <mxGeometry width="50" height="50" relative="1" as="geometry">
            <mxPoint x="180" y="290" as="sourcePoint" />
            <mxPoint x="310" y="290" as="targetPoint" />
          </mxGeometry>
        </mxCell>
        <mxCell id="NVefRhnBoddBYxRPYqin-5" value="Gerrit Commit" style="text;html=1;strokeColor=none;fillColor=none;align=center;verticalAlign=middle;whiteSpace=wrap;rounded=0;" vertex="1" parent="1">
          <mxGeometry x="210" y="250" width="60" height="30" as="geometry" />
        </mxCell>
        <mxCell id="NVefRhnBoddBYxRPYqin-6" value="" style="rounded=0;whiteSpace=wrap;html=1;" vertex="1" parent="1">
          <mxGeometry x="310" y="285" width="140" height="70" as="geometry" />
        </mxCell>
        <mxCell id="NVefRhnBoddBYxRPYqin-7" value="" style="endArrow=classic;html=1;rounded=0;exitX=0;exitY=1;exitDx=0;exitDy=0;" edge="1" parent="1" source="NVefRhnBoddBYxRPYqin-6">
          <mxGeometry width="50" height="50" relative="1" as="geometry">
            <mxPoint x="210" y="370" as="sourcePoint" />
            <mxPoint x="190" y="355" as="targetPoint" />
          </mxGeometry>
        </mxCell>
        <mxCell id="NVefRhnBoddBYxRPYqin-8" value="+1/-1 Feedback" style="text;html=1;strokeColor=none;fillColor=none;align=center;verticalAlign=middle;whiteSpace=wrap;rounded=0;" vertex="1" parent="1">
          <mxGeometry x="210" y="360" width="60" height="30" as="geometry" />
        </mxCell>
        <mxCell id="NVefRhnBoddBYxRPYqin-9" value="Gerrit Central" style="text;html=1;strokeColor=none;fillColor=none;align=center;verticalAlign=middle;whiteSpace=wrap;rounded=0;" vertex="1" parent="1">
          <mxGeometry x="350" y="305" width="60" height="30" as="geometry" />
        </mxCell>
        <mxCell id="NVefRhnBoddBYxRPYqin-10" value="" style="endArrow=classic;html=1;rounded=0;entryX=-0.007;entryY=0.1;entryDx=0;entryDy=0;entryPerimeter=0;" edge="1" parent="1" target="NVefRhnBoddBYxRPYqin-11">
          <mxGeometry width="50" height="50" relative="1" as="geometry">
            <mxPoint x="450" y="290" as="sourcePoint" />
            <mxPoint x="570" y="290" as="targetPoint" />
          </mxGeometry>
        </mxCell>
        <mxCell id="NVefRhnBoddBYxRPYqin-11" value="" style="rounded=0;whiteSpace=wrap;html=1;" vertex="1" parent="1">
          <mxGeometry x="610" y="285" width="140" height="70" as="geometry" />
        </mxCell>
        <mxCell id="NVefRhnBoddBYxRPYqin-12" value="ENM Jenkins Server" style="text;html=1;strokeColor=none;fillColor=none;align=center;verticalAlign=middle;whiteSpace=wrap;rounded=0;" vertex="1" parent="1">
          <mxGeometry x="650" y="305" width="60" height="30" as="geometry" />
        </mxCell>
        <mxCell id="NVefRhnBoddBYxRPYqin-13" value="" style="endArrow=classic;html=1;rounded=0;exitX=0;exitY=1;exitDx=0;exitDy=0;entryX=1;entryY=1;entryDx=0;entryDy=0;" edge="1" parent="1" source="NVefRhnBoddBYxRPYqin-11" target="NVefRhnBoddBYxRPYqin-6">
          <mxGeometry width="50" height="50" relative="1" as="geometry">
            <mxPoint x="470" y="350" as="sourcePoint" />
            <mxPoint x="520" y="300" as="targetPoint" />
          </mxGeometry>
        </mxCell>
        <mxCell id="NVefRhnBoddBYxRPYqin-14" value="$GERRIT_REFSPEC" style="text;html=1;strokeColor=none;fillColor=none;align=center;verticalAlign=middle;whiteSpace=wrap;rounded=0;" vertex="1" parent="1">
          <mxGeometry x="490" y="250" width="60" height="30" as="geometry" />
        </mxCell>
        <mxCell id="NVefRhnBoddBYxRPYqin-15" value="" style="rounded=0;whiteSpace=wrap;html=1;" vertex="1" parent="1">
          <mxGeometry x="95" y="510" width="120" height="60" as="geometry" />
        </mxCell>
        <mxCell id="NVefRhnBoddBYxRPYqin-16" value="&lt;div&gt;SonarQube&lt;/div&gt;&lt;div&gt;Docker&lt;/div&gt;&lt;div&gt;Container&lt;br&gt;&lt;/div&gt;" style="text;html=1;strokeColor=none;fillColor=none;align=center;verticalAlign=middle;whiteSpace=wrap;rounded=0;" vertex="1" parent="1">
          <mxGeometry x="125" y="525" width="60" height="30" as="geometry" />
        </mxCell>
        <mxCell id="NVefRhnBoddBYxRPYqin-17" value="" style="endArrow=classic;html=1;rounded=0;entryX=0.25;entryY=0;entryDx=0;entryDy=0;" edge="1" parent="1" target="NVefRhnBoddBYxRPYqin-15">
          <mxGeometry width="50" height="50" relative="1" as="geometry">
            <mxPoint x="130" y="370" as="sourcePoint" />
            <mxPoint x="110" y="410" as="targetPoint" />
          </mxGeometry>
        </mxCell>
        <mxCell id="NVefRhnBoddBYxRPYqin-18" value="Manually Runs" style="text;html=1;strokeColor=none;fillColor=none;align=center;verticalAlign=middle;whiteSpace=wrap;rounded=0;" vertex="1" parent="1">
          <mxGeometry x="70" y="420" width="60" height="30" as="geometry" />
        </mxCell>
        <mxCell id="NVefRhnBoddBYxRPYqin-19" value="" style="endArrow=classic;html=1;rounded=0;" edge="1" parent="1">
          <mxGeometry width="50" height="50" relative="1" as="geometry">
            <mxPoint x="180" y="510" as="sourcePoint" />
            <mxPoint x="180" y="370" as="targetPoint" />
          </mxGeometry>
        </mxCell>
        <mxCell id="NVefRhnBoddBYxRPYqin-20" value="Test Coverage, bugs, vuln information" style="text;html=1;strokeColor=none;fillColor=none;align=center;verticalAlign=middle;whiteSpace=wrap;rounded=0;" vertex="1" parent="1">
          <mxGeometry x="185" y="440" width="60" height="30" as="geometry" />
        </mxCell>
        <mxCell id="NVefRhnBoddBYxRPYqin-21" value="Build Results: Passed or Failed" style="text;html=1;strokeColor=none;fillColor=none;align=center;verticalAlign=middle;whiteSpace=wrap;rounded=0;" vertex="1" parent="1">
          <mxGeometry x="470" y="370" width="100" height="30" as="geometry" />
        </mxCell>
        <mxCell id="NVefRhnBoddBYxRPYqin-22" value="&lt;div align=&quot;left&quot;&gt;Backend and Frontend Docker containers built to automatically prove code compiles. Tests are then run to verify code works as expected.&lt;br&gt;&lt;/div&gt;" style="text;html=1;strokeColor=none;fillColor=none;align=center;verticalAlign=middle;whiteSpace=wrap;rounded=0;" vertex="1" parent="1">
          <mxGeometry x="610" y="370" width="150" height="80" as="geometry" />
        </mxCell>
      </root>
    </mxGraphModel>
  </diagram>
</mxfile>
